<?xml version="1.0" standalone="no"?>
<!DOCTYPE svg PUBLIC "-//W3C//DTD SVG 20010904//EN"
 "http://www.w3.org/TR/2001/REC-SVG-20010904/DTD/svg10.dtd">
<svg version="1.0" xmlns="http://www.w3.org/2000/svg"
 width="1382.000000pt" height="1382.000000pt" viewBox="0 0 1382.000000 1382.000000"
 preserveAspectRatio="xMidYMid meet">
<metadata>
Created by potrace 1.11, written by Peter Selinger 2001-2013
</metadata>
<g transform="translate(0.000000,1382.000000) scale(0.100000,-0.100000)"
fill="#000000" stroke="none">
<path d="M0 13606 l0 -214 28 -7 c71 -18 410 -85 430 -85 20 0 30 -15 67 -92
80 -172 297 -787 491 -1387 57 -178 104 -328 104 -333 0 -4 45 -122 99 -261
141 -360 185 -512 161 -557 -14 -25 28 -30 -403 46 -271 47 -754 120 -920 139
l-57 6 2 -1242 3 -1243 522 -105 c287 -58 524 -109 528 -112 3 -3 -53 -124
-124 -268 -200 -405 -357 -787 -435 -1061 -20 -69 -67 -264 -105 -435 -120
-536 -283 -1191 -353 -1415 l-32 -105 -3 -2302 -3 -2302 52 5 c116 13 259 48
368 90 87 34 123 44 147 39 18 -3 157 -46 310 -96 596 -193 701 -219 1053
-254 216 -22 564 -22 721 -1 135 18 283 55 360 89 l53 23 156 -38 c206 -52
471 -104 597 -119 115 -13 157 -8 415 57 218 54 364 113 420 169 80 80 30 306
-95 428 -90 88 -220 140 -381 153 -115 9 -139 21 -177 90 -18 32 -71 105 -117
163 -94 119 -128 180 -165 296 -32 101 -74 291 -83 374 -6 54 -12 69 -46 109
-22 25 -44 56 -49 69 -5 13 -9 167 -9 341 l0 317 -65 61 c-73 68 -81 94 -43
154 11 19 68 125 126 235 288 551 645 1066 1121 1618 239 277 416 463 937 982
559 557 733 745 956 1032 l56 72 -1 -302 c-1 -279 1 -316 26 -487 37 -256 104
-651 182 -1070 61 -329 339 -1733 351 -1772 4 -15 -1 -18 -26 -18 l-31 0 6
-62 c7 -75 55 -844 55 -876 0 -16 -6 -22 -22 -22 -50 0 -170 -43 -185 -67 -36
-54 -1 -224 129 -633 62 -193 72 -236 72 -300 1 -61 -4 -86 -26 -132 l-27 -58
25 -167 c43 -295 107 -503 173 -567 60 -57 157 -74 481 -83 228 -6 570 8 777
32 68 8 213 37 324 65 110 28 314 77 453 109 l252 59 100 -8 c257 -23 660 0
1164 66 107 14 244 36 305 48 l109 23 101 -34 c133 -45 315 -89 445 -108 302
-43 995 -69 1225 -45 338 34 498 138 499 321 0 57 -5 78 -38 144 -41 83 -146
203 -224 257 -28 20 -137 61 -310 118 -322 105 -421 148 -459 199 -15 20 -59
70 -99 111 -59 62 -75 85 -88 133 -21 73 -74 128 -146 154 -45 16 -62 30 -125
108 -90 111 -135 182 -135 211 0 120 -237 572 -368 703 -39 38 -62 52 -120 70
-84 25 -108 50 -147 154 -22 59 -25 83 -25 195 0 432 185 1349 359 1784 180
449 638 1456 1453 3193 189 401 240 502 283 555 172 212 261 416 364 830 22
91 50 199 62 240 15 53 22 103 22 170 0 117 -20 178 -154 461 -308 653 -918
1815 -1700 3236 l-84 153 -5937 0 -5938 0 0 -214z m9805 -2146 c587 -552 1056
-1000 1382 -1324 l343 -339 32 -81 c28 -71 32 -93 32 -176 0 -200 -80 -380
-320 -716 -270 -379 -468 -801 -644 -1374 -115 -373 -113 -365 -369 -1835
-210 -1203 -286 -1622 -333 -1825 -98 -432 -179 -589 -321 -620 -161 -35 -181
-50 -282 -214 -42 -69 -64 -96 -75 -92 -8 2 -51 19 -95 38 -75 32 -83 38 -128
103 -27 39 -85 145 -130 237 -79 160 -83 167 -112 168 -71 1 -71 2 -103 138
-42 177 -81 378 -88 459 -11 113 27 702 81 1263 14 140 47 523 75 850 72 855
117 1359 146 1650 38 390 115 870 217 1360 l61 295 1 175 c0 258 -42 472 -159
820 l-55 163 54 136 c29 75 134 341 232 591 99 250 183 464 187 474 6 18 12
15 54 -26 26 -25 169 -159 317 -298z m-4576 63 c142 -145 379 -443 745 -937
189 -256 206 -282 206 -320 0 -51 -27 -480 -36 -561 -3 -33 -12 -91 -20 -128
-48 -236 -255 -860 -331 -999 -55 -101 -237 -258 -723 -623 -294 -222 -405
-324 -524 -485 -235 -317 -629 -948 -931 -1490 -288 -517 -1119 -1900 -1360
-2264 -120 -180 -142 -194 -391 -245 -159 -32 -194 -49 -376 -173 -235 -161
-502 -386 -538 -452 -16 -30 -17 -30 -126 20 l-74 33 35 99 c80 231 229 544
385 812 294 504 844 1373 1582 2500 156 239 301 461 322 494 21 32 143 262
273 510 273 523 440 832 599 1109 243 423 329 544 509 722 83 82 161 170 189
212 92 141 158 317 178 479 14 113 10 147 -88 647 l-67 339 161 326 c88 180
170 348 182 375 25 53 71 97 103 97 13 0 56 -36 116 -97z"/>
</g>
</svg>
