<svg xmlns="http://www.w3.org/2000/svg" width="210" height="51" viewBox="0 0 210 51">
  <g fill="#595A59" fill-rule="evenodd">
    <path d="M1.06488 16.45056L6.00168 16.45056 6.00168 15.52508 2.05224 15.52508 2.05224.94112 1.06488.94112 1.06488 16.45056zM7.25628 16.45056L8.26404 16.45056 10.34144 11.3492 17.15028 11.3492 19.22836 16.45056 20.23612 16.45056 13.7564.42636 7.25628 16.45056zM13.7564 2.93624L16.78036 10.42372 10.71204 10.42372 13.7564 2.93624zM23.03364 16.45056L24.021 16.45056 24.021 3.1212 37.04164 16.96532 37.04164.94112 36.05428.94112 36.05428 14.47584 23.03364.73508 23.03364 16.45056zM41.40248.94112L41.40248 16.45056 44.32308 16.45056C46.648 16.45056 48.68392 15.89568 50.32952 14.10592 51.72896 12.60448 52.428 10.73244 52.428 8.71624 52.428 6.72112 51.74936 4.7872 50.32952 3.26536 48.705 1.51708 46.79148.94112 44.32308.94112L41.40248.94112zM42.38984 15.52508L42.38984 1.8666 44.30268 1.8666C46.40116 1.8666 47.98488 2.33988 49.48632 3.84132 50.7824 5.1578 51.44064 6.86528 51.44064 8.71624 51.44064 10.44412 50.8028 12.1516 49.5686 13.46808 48.14944 14.9906 46.35968 15.52508 44.30268 15.52508L42.38984 15.52508zM55.84228 16.45056L56.82964 16.45056 56.82964 8.449 66.25104 8.449 66.25104 16.45056 67.2384 16.45056 67.2384.94112 66.25104.94112 66.25104 7.52352 56.82964 7.52352 56.82964.94112 55.84228.94112 55.84228 16.45056zM70.03592 16.45056L71.04368 16.45056 73.12108 11.3492 79.92992 11.3492 82.00732 16.45056 83.01576 16.45056 76.53604.42636 70.03592 16.45056zM76.53604 2.93624L79.56 10.42372 73.49168 10.42372 76.53604 2.93624zM85.42228 11.04116C85.42228 13.48848 85.97784 14.84644 87.76692 15.89568 88.6312 16.40976 89.68044 16.6566 90.6882 16.6566 92.84788 16.6566 94.74032 15.48428 95.41964 14.04404 95.89224 13.05668 95.95412 12.31616 95.95412 10.77324L95.95412.94112 94.96676.94112 94.96676 10.4856C94.96676 12.27536 94.84368 13.15936 94.30852 14.02364 93.71216 14.96952 92.25152 15.73112 90.6882 15.73112 89.20716 15.73112 87.54116 15.0314 86.90332 13.73532 86.5946 13.09816 86.40964 12.21348 86.40964 10.69096L86.40964.94112 85.42228.94112 85.42228 11.04116zM108.04928 2.91584C107.30876 1.57828 105.82772.73508 104.2644.73508 101.96056.73508 100.29456 2.3188 100.29456 4.66412 100.29456 5.89832 100.87052 6.90608 102.06324 7.52352 103.27704 8.16136 104.42896 8.79852 105.72504 9.43636 107.26728 10.19728 107.82284 11.10236 107.82284 12.06932 107.82284 14.06444 106.09496 15.73112 103.99716 15.73112 102.26928 15.73112 100.9732 14.74376 100.25308 12.9336L99.38948 13.32392C100.10892 15.31972 101.796 16.6566 103.95568 16.6566 106.3622 16.6566 108.8102 14.82604 108.8102 12.08972 108.8102 10.15648 107.41144 9.2514 106.87696 8.98416 105.68356 8.36672 104.46976 7.72888 103.27704 7.13252 101.63144 6.30972 101.28192 5.42504 101.28192 4.62264 101.28192 2.91584 102.5984 1.66056 104.20252 1.66056 105.519 1.66056 106.58864 2.2576 107.34956 3.4918L108.04928 2.91584zM119.79492.94112L119.79492 16.45056 120.78228 16.45056 120.78228 8.4286 125.90404 8.4286 125.90404 7.50312 120.78228 7.50312 120.78228 1.8666 126.0482 1.8666 126.0482.94112 119.79492.94112zM129.95616 16.45056L134.89296 16.45056 134.89296 15.52508 130.94352 15.52508 130.94352.94112 129.95616.94112 129.95616 16.45056zM152.3778 8.69584C152.3778 4.21124 148.57252.73508 144.33476.73508 139.97392.73508 136.29172 4.29352 136.29172 8.69584 136.29172 13.07708 139.99432 16.6566 144.33476 16.6566 148.73708 16.6566 152.3778 13.01588 152.3778 8.69584zM144.33476 15.73112C140.488 15.73112 137.27908 12.5426 137.27908 8.69584 137.27908 4.80828 140.54988 1.66056 144.31436 1.66056 148.11964 1.66056 151.39044 4.80828 151.39044 8.69584 151.39044 12.5834 148.09924 15.73112 144.33476 15.73112zM153.6528.94112L153.6528 1.8666 157.66412 1.8666 157.66412 16.45056 158.65148 16.45056 158.65148 1.8666 162.6628 1.8666 162.6628.94112 153.6528.94112zM163.9378.94112L163.9378 1.8666 167.94912 1.8666 167.94912 16.45056 168.93648 16.45056 168.93648 1.8666 172.9478 1.8666 172.9478.94112 163.9378.94112zM175.76572.94112L175.76572 16.45056 179.9824 16.45056C181.23768 16.45056 182.20396 16.16292 183.00636 15.60736 184.0964 14.86684 184.79612 13.63264 184.79612 12.1312 184.79612 10.15648 183.52112 8.63396 181.5872 8.22256 182.8214 7.54392 183.37696 6.45388 183.37696 5.05512 183.37696 3.82092 183.04784 2.7098 182.10128 1.8666 181.1962 1.0642 180.14696.94112 178.97464.94112L175.76572.94112zM176.75308 7.97572L176.75308 1.8666 178.58364 1.8666C179.40644 1.8666 180.3938 1.887 181.11392 2.36028 182.019 2.95664 182.3896 3.88212 182.3896 4.91096 182.3896 5.5488 182.28624 6.30972 181.81364 6.86528 181.25808 7.50312 180.53796 7.97572 179.20108 7.97572L176.75308 7.97572zM176.75308 15.52508L176.75308 8.90188 179.34524 8.90188C180.45568 8.90188 181.40224 9.02496 182.12168 9.35408 183.35656 9.93004 183.80876 11.14384 183.80876 12.172 183.80876 13.3654 183.13012 14.47584 182.08088 15.0518 181.25808 15.50468 180.41488 15.52508 179.5098 15.52508L176.75308 15.52508zM188.41644.94112L188.41644 16.45056 195.82164 16.45056 195.82164 15.52508 189.4038 15.52508 189.4038 8.4286 195.65708 8.4286 195.65708 7.50312 189.4038 7.50312 189.4038 1.8666 195.82164 1.8666 195.82164.94112 188.41644.94112zM199.87376 16.45056L200.86112 16.45056 200.86112 9.45676 201.27252 9.04536 208.71852 16.45056 210.0146 16.45056 201.95116 8.4082 209.54132.94112 208.22484.94112 200.86112 8.18176 200.86112.94112 199.87376.94112 199.87376 16.45056 199.87376 16.45056zM.58276 22.57668L.58276 49.84468 16.16972 49.84468 16.16972 43.84164 7.67108 43.84164 7.67108 22.57668.58276 22.57668zM28.32132 22.57668L17.833 49.84468 25.35584 49.84468 27.23604 45.10712 37.00084 45.10712 38.77292 49.84468 46.33112 49.84468 36.0604 22.57668 28.32132 22.57668zM32.11844 31.00324L32.19052 31.00324 35.08392 39.68276 29.189 39.68276 32.11844 31.00324zM49.76648 22.57668L49.76648 38.23572C49.76648 42.82912 50.45396 45.3968 52.62384 47.53064 55.11944 49.95348 58.80776 50.5682 61.66512 50.5682 67.05344 50.5682 70.77848 48.4704 72.36968 45.288 73.27408 43.47988 73.56308 41.38208 73.56308 38.23572L73.56308 22.57668 66.47476 22.57668 66.47476 37.2232C66.47476 40.8034 66.00488 44.34756 61.66512 44.34756 57.2526 44.34756 56.8548 40.69528 56.8548 37.18716L56.8548 22.57668 49.76648 22.57668zM79.8558 22.57668L79.8558 49.84468 86.94412 49.84468 86.94412 39.14012 94.71992 39.14012 94.71992 33.13708 86.94412 33.13708 86.94412 28.57972 95.51552 28.57972 95.51552 22.57668 79.8558 22.57668zM135.983 31.18412C135.983 25.32524 131.28148 21.4914 125.45932 21.4914 119.31076 21.4914 115.04376 25.47008 114.82684 31.97972L122.638 31.97972C122.56592 31.58192 122.52988 31.22016 122.52988 30.82236 122.52988 28.83336 123.72328 27.49512 125.49536 27.49512 127.2314 27.49512 128.60568 29.1584 128.60568 31.03928 128.60568 33.17312 127.37556 35.70476 125.49536 37.7298L114.35628 49.84468 136.27268 49.84468 136.27268 43.84164 127.33952 43.84164 131.06456 40.36956C133.74104 37.87464 134.71752 36.71728 135.40432 34.72828 135.73004 33.7518 135.983 32.5584 135.983 31.18412zM163.7576 36.21068C163.7576 29.05028 160.24948 21.4914 152.18468 21.4914 144.58976 21.4914 140.61176 28.39884 140.61176 36.21068 140.61176 44.0946 144.58976 50.92996 152.18468 50.92996 159.74288 50.92996 163.7576 44.16736 163.7576 36.21068zM152.18468 44.67328C149.03832 44.67328 147.66404 40.04452 147.66404 36.17464 147.66404 34.11288 148.35084 27.74808 152.14864 27.74808 155.54796 27.74808 156.70532 32.7386 156.70532 36.17464 156.70532 40.0078 155.36708 44.67328 152.18468 44.67328zM167.69888 22.57668L167.69888 28.57972 171.6048 28.57972 171.6048 49.84468 178.69312 49.84468 178.69312 22.57668 167.69888 22.57668zM186.54032 22.57668L186.54032 28.57972 197.93236 28.57972 185.49176 49.84468 193.26688 49.84468 208.9266 22.57668 186.54032 22.57668 186.54032 22.57668z"/>
  </g>
</svg>
